<svg xmlns="http://www.w3.org/2000/svg" viewBox="0 0 29.35 29.98"><defs><style>.cls-1{stroke:#000;stroke-miterlimit:10;}</style></defs><title>Asset 5</title><g id="Layer_2" data-name="Layer 2"><g id="Layer_1-2" data-name="Layer 1"><path class="cls-1" d="M15.21,27.65S13,22.78,12.41,23.9C10.15,28,10.19,20.81,8,23.73c-1,1.38-.3-5.53-3.38-5.7C3.56,18,.67,15.15.67,15.15A43.85,43.85,0,0,0,4.21,9.94c1.86-3.25,3-.23,4-.89C10.49,7.43,9,3.46,11.64,3.4c1.8,0,3.57-1.85,3.57-1.85V8.17L7.78,14.6l7.43,6.45Z"/><path class="cls-1" d="M28.85,2.33s-2.19,4.87-2.8,3.76c-2.26-4.1-2.22,3.08-4.44.17-1.05-1.38-.3,5.52-3.38,5.69-1,.06-3.92,2.88-3.92,2.88a43.5,43.5,0,0,1,3.54,5.22c1.86,3.24,3,.23,3.95.88,2.33,1.62.82,5.59,3.48,5.66,1.8,0,3.57,1.85,3.57,1.85V21.81l-7.43-6.43,7.43-6.45Z"/></g></g></svg>